<?xml version="1.0" encoding="UTF-8" standalone="no"?>
<!-- Created with Inkscape (http://www.inkscape.org/) -->

<svg
   xmlns:dc="http://purl.org/dc/elements/1.1/"
   xmlns:cc="http://creativecommons.org/ns#"
   xmlns:rdf="http://www.w3.org/1999/02/22-rdf-syntax-ns#"
   xmlns:svg="http://www.w3.org/2000/svg"
   xmlns="http://www.w3.org/2000/svg"
   xmlns:xlink="http://www.w3.org/1999/xlink"
   xmlns:sodipodi="http://sodipodi.sourceforge.net/DTD/sodipodi-0.dtd"
   xmlns:inkscape="http://www.inkscape.org/namespaces/inkscape"
   width="744.09448819"
   height="1052.3622047"
   id="svg2"
   version="1.1"
   inkscape:version="0.48.2 r9819"
   sodipodi:docname="logo.svg">
  <defs
     id="defs4">
    <linearGradient
       id="linearGradient4089">
      <stop
         style="stop-color:#009100;stop-opacity:1;"
         offset="0"
         id="stop4091" />
      <stop
         style="stop-color:#00fd2c;stop-opacity:1;"
         offset="1"
         id="stop4093" />
    </linearGradient>
    <linearGradient
       id="linearGradient4081">
      <stop
         style="stop-color:#f8c301;stop-opacity:1;"
         offset="0"
         id="stop4083" />
      <stop
         style="stop-color:#f86701;stop-opacity:1;"
         offset="1"
         id="stop4085" />
    </linearGradient>
    <filter
       inkscape:collect="always"
       id="filter4017">
      <feGaussianBlur
         inkscape:collect="always"
         stdDeviation="4.570209"
         id="feGaussianBlur4019" />
    </filter>
    <linearGradient
       inkscape:collect="always"
       xlink:href="#linearGradient4081"
       id="linearGradient4087"
       x1="318.91611"
       y1="160.39024"
       x2="365.01334"
       y2="22.533092"
       gradientUnits="userSpaceOnUse" />
    <linearGradient
       inkscape:collect="always"
       xlink:href="#linearGradient4089"
       id="linearGradient4095"
       x1="177.12969"
       y1="229.67572"
       x2="423.94264"
       y2="229.67572"
       gradientUnits="userSpaceOnUse" />
    <linearGradient
       inkscape:collect="always"
       xlink:href="#linearGradient4081"
       id="linearGradient4107"
       gradientUnits="userSpaceOnUse"
       x1="318.91611"
       y1="160.39024"
       x2="365.01334"
       y2="22.533092" />
    <linearGradient
       inkscape:collect="always"
       xlink:href="#linearGradient4089"
       id="linearGradient4109"
       gradientUnits="userSpaceOnUse"
       x1="177.12969"
       y1="229.67572"
       x2="423.94264"
       y2="229.67572" />
    <filter
       id="filter4125"
       inkscape:label="Darken edges"
       inkscape:menu="Shadows and Glows"
       inkscape:menu-tooltip="Darken the edges with an inner blur"
       color-interpolation-filters="sRGB">
      <feGaussianBlur
         id="feGaussianBlur4127"
         result="result6"
         stdDeviation="1.5" />
      <feComposite
         id="feComposite4129"
         in2="result6"
         operator="atop"
         in="SourceGraphic"
         result="result8" />
      <feComposite
         id="feComposite4131"
         in2="SourceAlpha"
         in="result8"
         operator="atop"
         result="result9" />
    </filter>
  </defs>
  <sodipodi:namedview
     id="base"
     pagecolor="#ffffff"
     bordercolor="#666666"
     borderopacity="1.0"
     inkscape:pageopacity="0.0"
     inkscape:pageshadow="2"
     inkscape:zoom="0.98994949"
     inkscape:cx="356.53143"
     inkscape:cy="589.70347"
     inkscape:document-units="px"
     inkscape:current-layer="layer1"
     showgrid="false"
     inkscape:window-width="1366"
     inkscape:window-height="721"
     inkscape:window-x="-3"
     inkscape:window-y="-3"
     inkscape:window-maximized="1" />
  <metadata
     id="metadata7">
    <rdf:RDF>
      <cc:Work
         rdf:about="">
        <dc:format>image/svg+xml</dc:format>
        <dc:type
           rdf:resource="http://purl.org/dc/dcmitype/StillImage" />
        <dc:title></dc:title>
      </cc:Work>
    </rdf:RDF>
  </metadata>
  <g
     inkscape:label="Layer 1"
     inkscape:groupmode="layer"
     id="layer1">
    <rect
       style="opacity:0.41791047;fill:#cdd6dd;fill-opacity:1;stroke:none"
       id="rect4103"
       width="339.70407"
       height="260.22144"
       x="532.32483"
       y="319.18692"
       ry="1.7733289" />
    <rect
       style="fill:#556f83;fill-opacity:1;stroke:none"
       id="rect4105"
       width="375.23801"
       height="126.50069"
       x="203.43094"
       y="632.9505"
       ry="63.250343" />
    <rect
       style="fill:#037cd9;fill-opacity:1;stroke:none;filter:url(#filter4125)"
       id="rect4111"
       width="724.28571"
       height="222.85715"
       x="9.9043884"
       y="414.7525"
       ry="111.42857"
       transform="matrix(0.49747462,0,0,0.49747462,205.96586,434.4391)" />
    <g
       id="g4097"
       transform="matrix(0.49747462,0,0,0.49747462,198.70788,368.75611)"
       inkscape:export-filename="/home/cm/devel/doimp/static/images/logo.png"
       inkscape:export-xdpi="98.298256"
       inkscape:export-ydpi="98.298256">
      <path
         inkscape:connector-curvature="0"
         id="path3080"
         d="m 378.2065,51.038537 c -21.40185,1.564938 -43.03194,2.544819 -63.92098,7.650995 -6.41244,2.717834 -13.8435,5.866721 -20.76083,3.094925 -5.80601,-2.288053 -11.5659,-4.725453 -17.82196,-5.18617 -30.0737,-4.92287 -60.64158,-5.539889 -91.01755,-7.424584 -4.28664,-0.219192 -8.57312,-0.441632 -12.85968,-0.662326 0.4633,52.141323 -0.94288,104.317343 1.2416,156.431153 0.70736,8.5616 0.7929,17.79172 5.85642,25.10678 7.36642,10.19719 19.95935,14.53395 31.83566,16.81269 22.05024,4.37449 44.71384,1.41338 66.9433,4.00891 4.39831,0.50308 9.6631,1.97798 11.30629,6.60357 1.50996,3.45763 0.002,7.58823 -3.18642,9.47136 -4.82826,3.06761 -10.83221,2.66232 -16.29225,3.37887 -18.89958,1.22074 -37.85191,0.56811 -56.77561,0.84038 -13.62103,0.005 -27.24206,-0.0418 -40.86307,-0.011 0.29483,25.55477 -0.99866,51.18119 1.17204,76.67724 0.93439,6.04618 4.50819,11.45159 9.05709,15.45066 5.15372,5.72071 11.56097,11.32322 19.60447,11.65502 14.61661,1.71959 29.41666,0.72488 44.11328,1.10518 14.51835,0.008 29.0367,-0.0421 43.55504,-0.011 0.96396,11.07393 -1.47091,22.61648 2.15358,33.31455 3.72125,2.76484 8.85307,1.63651 13.04234,0.74716 1.80348,-0.50417 3.09495,-2.16125 3.0216,-4.03245 1.52371,-4.83499 7.07665,-6.19482 11.51041,-6.88031 8.7502,-1.29067 17.67546,-0.93087 26.50673,-1.29974 21.10178,-0.3194 42.47081,0.37952 63.24503,-3.79651 8.35489,-3.2548 12.46406,-12.10041 14.93221,-20.12937 6.17685,-20.43662 5.41341,-42.16456 5.43889,-63.33284 -0.0426,-6.05049 -0.057,-12.10174 0.0549,-18.1516 -40.68261,1.1015 -81.37493,1.79285 -122.06179,2.71395 -0.002,-15.16662 0.002,-30.33324 0.011,-45.49985 30.06684,-0.73218 60.55015,2.05534 90.2086,-4.10938 9.37776,-2.36237 19.29801,-7.05918 23.84319,-16.05296 6.01332,-12.29681 5.82933,-26.36811 6.95518,-39.75331 1.65069,-33.82433 0.74574,-67.69958 1.02856,-101.547849 -0.007,-13.320693 -0.0132,-26.641392 0.004,-39.962079 -17.02719,0.926625 -34.05438,1.85325 -51.08157,2.779875 z"
         style="fill:url(#linearGradient4107);fill-opacity:1" />
      <path
         inkscape:connector-curvature="0"
         id="path3076"
         d="m 177.77796,126.36861 c 0.50042,30.92363 -0.38573,62.08379 4.49395,92.71378 4.41726,12.29725 17.34946,19.41192 29.88115,20.50087 14.28273,1.73427 28.80735,0.67866 43.03825,2.6258 12.75226,1.06914 25.83375,1.90218 37.79215,6.74875 6.21108,3.61897 9.23389,12.93789 4.54888,18.88777 -4.2762,5.5543 -11.95437,5.96511 -18.41475,6.21378 -28.82218,1.10014 -57.64329,-0.70082 -86.46193,-1.06861 -5.17576,-0.14747 -10.35169,-0.29269 -15.52597,-0.48641 1.58248,24.92542 0.39277,50.1028 4.16432,74.83688 2.38377,7.50279 9.20372,12.07045 14.82657,17.02516 5.19141,4.10025 11.63992,6.26287 18.27555,6.07339 20.8437,1.28407 41.73576,0.29909 62.6003,0.67443 7.44962,-0.008 14.89926,-0.0108 22.34888,0.004 1.61482,11.57132 -0.92526,23.52091 1.3295,34.92971 3.45967,0.26005 5.28543,-3.14623 6.9442,-5.55971 4.78984,-5.39938 12.63111,-6.00617 19.38967,-6.70076 19.86116,-1.69695 39.80499,-0.20483 59.68712,-1.1984 5.3308,-0.40772 10.74549,-0.6593 15.91143,-1.98974 7.5811,-3.42534 13.14897,-10.14352 17.92085,-16.75617 4.06861,-8.44877 2.53004,-18.1547 3.17828,-27.26029 0.16774,-17.37838 0.0526,-34.75766 0.096,-52.13646 -39.22592,1.01019 -78.45204,2.01347 -117.67771,3.03259 -0.002,-16.899 0.002,-33.798 0.011,-50.69701 30.46061,-3.85032 61.12649,-6.01084 91.79083,-7.17493 9.71702,-2.21922 16.20647,-10.48874 22.83233,-17.19567 1.444,-1.49987 3.77974,-2.8399 3.04386,-5.29605 0.009,-54.55367 0.0127,-109.10735 0.0107,-163.661023 -33.08168,1.290396 -66.53792,-0.0067 -99.17157,6.382966 -8.17894,2.595412 -16.26473,7.882969 -25.19548,6.279927 -11.04996,-1.516592 -21.178,-7.099026 -32.33882,-7.872278 -29.55718,-4.210848 -59.53196,-4.043091 -89.32958,-4.95543 0,24.359617 0,48.719238 0,73.078848 z M 189.2161,59.871364 c 31.68516,2.981007 63.73905,3.179897 95.0102,9.537279 6.70832,2.986357 8.94592,10.873822 9.40244,17.665744 2.29928,20.473423 1.29757,41.111953 1.80201,61.665073 0.005,27.05434 0.24141,54.14753 -0.38161,81.17675 -1.47166,4.09607 -6.62555,4.89061 -10.39427,4.07026 -27.54805,-0.52877 -55.58431,1.79771 -82.61618,-4.6526 -7.46615,-2.93434 -11.25534,-11.17726 -11.7208,-18.80429 -2.00882,-14.62676 -1.26115,-29.47849 -1.76405,-44.20965 -0.29972,-35.50064 0.0946,-71.002518 -0.0959,-106.503505 0.25272,0.01831 0.50544,0.03663 0.75815,0.05494 z m 223.93927,0.285679 c 3.20128,-0.03045 5.28718,3.597328 4.32549,6.482693 -0.56769,46.699494 1.5138,93.486764 -1.93953,140.111954 -0.91116,7.86826 -3.56382,16.5999 -10.7146,20.92304 -9.79384,6.00389 -21.75825,5.37417 -32.84195,6.08557 -21.28517,0.52215 -42.61791,0.25398 -63.88232,0.13344 -2.59988,-0.81289 -2.23883,-4.0397 -1.95952,-6.14205 0.55866,-46.54835 -1.6441,-93.21978 2.27816,-139.664045 0.76823,-6.215195 2.49541,-13.555113 8.60333,-16.547398 6.46597,-3.175727 13.88898,-3.222834 20.81242,-4.78143 24.93148,-3.737952 50.22991,-4.286538 75.31852,-6.601774 z m -41.69812,52.158367 c -4.34007,0.14201 -8.68183,0.3601 -12.99839,0.84605 4.54186,-0.1358 9.08446,-0.37614 13.60271,-0.86803 l -0.35138,0.0128 -0.25294,0.009 z"
         style="fill:url(#linearGradient4109);fill-opacity:1" />
      <path
         transform="matrix(0.35160476,0,0,0.35160476,169.72259,44.668233)"
         sodipodi:nodetypes="ccccccccccccccccccccccccccccccccccccccccccccccccccccccccccccccccccccccccccccccccccccccccccccccccccccccccccccccccccccccccccccccccccccccc"
         inkscape:connector-curvature="0"
         id="path3068-2"
         d="M 751.5625,4.4375 C 645.93497,10.270624 539.23607,9.110587 434.96875,28.5625 418.56799,32.450644 403.62972,43.443653 386.09375,41.375 361.22434,39.804326 338.40014,28.076765 313.75681,24.611699 231.59456,8.722534 147.49103,7.8345233 64.065894,5.7121733 42.822545,5.2440175 21.580727,4.7034796 0.34375,4 1.4532085,119.77268 6.0915308,235.58121 1.7699258,351.34235 0.9254865,407.87897 1.2211804,464.79365 8.9375,520.84375 c 7.582866,26.13778 32.521377,42.13358 56.375,52.125 45.60709,19.14453 95.62762,24.8474 144.87412,24.44756 21.77058,4.85471 139.1732,-9.55113 138.34463,28.55244 -3.59721,5.97415 -12.34793,4.29558 -18.18192,5.69922 -45.51218,4.46583 -91.26637,0.59444 -136.88058,0.73828 -64.98297,-1.43976 -129.950066,-3.53842 -194.9375,-4.78125 4.4428647,80.40271 3.6065796,161.18674 12.840538,241.26412 3.73026,21.42933 15.575389,41.54053 32.815712,54.92338 20.005625,20.01236 44.537284,39.17939 73.67079,41.19549 44.21253,5.52849 89.01302,2.35734 133.48545,3.50932 32.58331,-0.0388 65.16672,-0.0856 97.75001,-0.0173 1.05724,27.21854 -3.7124,55.43769 4.4375,81.81249 5.95114,10.5332 19.60061,11.839 30.125,8.8125 15.76552,-2.0949 32.76628,-7.1055 42.40625,-20.6875 5.08513,-3.1934 11.51652,-1.5569 17.0625,-3.3437 77.76625,-10.0244 158.23476,3.063 234.46875,-18.2813 28.94426,-8.1268 58.23866,-24.87632 70.61267,-53.48164 7.34763,-17.20643 7.13237,-36.43015 9.72944,-54.8847 5.74074,-67.1472 2.94915,-134.61509 3.68914,-201.9149 -0.0256,-5.87755 1.54913,-14.03471 -5.375,-16.625 -7.63545,-3.63519 -16.0069,0.83788 -24.02485,-0.2498 -101.73141,3.46534 -203.46196,6.9574 -305.1939,10.40605 1.13072,-30.00195 -4.0906,-61.26208 6.3125,-90.125 5.5419,-4.22483 12.92136,-0.76878 19.1467,-2.80174 74.79773,-6.17773 150.1375,-8.83281 224.20192,-21.2702 21.99646,-4.83339 42.09402,-17.77696 55.87013,-35.74056 16.03983,-18.16817 24.4741,-42.29458 24.95593,-66.4181 5.83616,-61.21811 2.8217,-122.79091 4.06805,-184.17563 0.15956,-98.55202 0.005,-197.10418 0.0385,-295.65627 -3.35417,0.1875 -6.70833,0.375 -10.0625,0.5625 z M 81.96875,73.84375 c 66.37472,5.328649 133.0356,8.738901 199.05144,17.33584 17.58872,2.840822 35.50259,5.560433 52.22981,11.57041 10.88315,8.82351 9.82063,24.5056 11.92764,37.0546 4.92828,58.27371 2.73138,116.822 3.82236,175.22665 0.0584,72.05213 -0.2311,144.10421 0,216.15625 -69.08819,-1.50243 -138.34595,2.6089 -207.3125,-2.875 -18.60973,-1.8617 -38.77094,-9.80245 -47.09375,-27.78125 C 82.148852,475.24789 83.353787,446.13719 81.19428,418.66033 78.229339,349.36353 80.725159,279.98785 79.895744,210.65626 79.824559,165.00004 79.803805,119.34377 79.8125,73.6875 c 0.71875,0.05208 1.4375,0.104167 2.15625,0.15625 z m 608,10.65625 c 1.53578,101.72722 3.80523,203.44972 4.25,305.1875 -0.49444,33.52942 -1.53878,67.3516 -7.5,100.34375 -4.29588,15.1387 -17.12118,27.74673 -32.9375,29.875 -29.44799,7.05515 -60.1137,5.80832 -90.1875,8.25 -49.69143,2.11725 -99.42708,2.94646 -149.125,4.875 1.13017,-118.7309 -2.53065,-237.55723 2.83305,-356.2153 1.94227,-23.03961 4.7874,-47.82819 19.35445,-66.5347 16.49318,-17.741507 42.5081,-19.306526 65.17747,-21.37008 45.99135,-3.256516 92.14523,-2.766368 138.18904,-4.94789 16.63823,-0.498742 33.2766,-0.992876 49.91474,-1.49453 0.0104,0.677083 0.0208,1.354167 0.0312,2.03125 z m -113.75,100.6875 c -30.06861,1.36554 -62.2858,1.03348 -88.8125,17.125 -5.62551,5.85926 -1.16193,17.31379 7.12274,17.25672 23.36823,5.94986 47.86145,3.02688 71.75221,4.22986 22.52668,-0.27814 46.14097,-0.83393 66.8438,-10.42408 6.70631,-5.05117 5.15842,-17.39718 -3.03125,-20.125 -15.74224,-8.83957 -34.65998,-6.8481 -52.18743,-8.08212 l -0.99993,0.0116 -0.68764,0.008 z m -395.4375,0.4375 c -17.93139,1.15716 -38.78021,-0.92616 -53.03125,12.03125 -5.38538,7.79922 2.28233,19.34973 11.21875,19.3125 33.35039,9.34043 68.56239,5.66619 102.84337,6.05492 14.38065,-0.59875 29.38621,-0.6485 42.81288,-5.92992 6.11,-5.119 2.79986,-16.4267 -5.13256,-17.56239 -22.31684,-9.30659 -46.85258,-11.06192 -70.58156,-13.26116 -9.36229,-0.5761 -18.75087,-0.76396 -28.12963,-0.6452 z m 431.09375,99.75 c -33.72697,3.26075 -66.99423,11.23112 -101.08986,10.40267 -12.37658,0.8524 -26.25493,1.20964 -35.66014,10.28483 -4.55606,6.61976 0.19329,17.78479 8.79746,17.3603 40.22701,7.06947 81.54531,2.53178 121.64004,-3.51655 10.74786,-2.38084 23.03377,-4.98466 30.59375,-13.46875 4.60593,-9.05876 -3.65003,-20.16961 -13.34375,-20.34375 -3.60158,-0.69453 -7.24247,-0.81269 -10.9375,-0.71875 z m -439.90625,6.3125 c -14.45034,1.28483 -30.87625,-2.51091 -43.40625,6.59375 -6.29094,5.64025 0.33156,15.63343 7.03125,17.6875 43.95667,12.45242 90.29133,11.72355 135.68192,11.19213 10.03197,-0.84029 22.01721,-0.74634 29.44308,-8.37963 4.396,-6.9246 -0.86849,-16.38957 -8.6875,-17.53125 -16.70569,-5.92836 -34.73794,-4.99451 -52.12023,-7.38803 -22.60399,-1.62349 -45.27895,-2.45728 -67.94227,-2.17447 z m 438.71875,92.59375 c -37.39078,1.99009 -74.09032,10.85655 -111.65084,10.94766 -9.62465,0.7883 -22.31488,3.55025 -25.72416,13.98984 -1.65453,7.81699 5.95299,14.5489 13.46875,13.84375 35.10983,6.17419 71.08236,1.8904 106.26917,-1.74872 14.63822,-2.46969 30.20223,-4.90529 42.10583,-14.25128 5.21461,-6.98123 0.81476,-18.50214 -7.71875,-20.3125 -5.25747,-2.21806 -11.10878,-2.56079 -16.75,-2.46875 z m -436.4375,4.1875 c -15.33201,1.24331 -32.96885,-2.89778 -46.03125,7.1875 -6.08544,7.13277 1.9234,17.94737 9.92187,18.99008 42.35573,13.6107 87.73407,11.81792 131.79688,11.75992 10.43731,-0.79423 22.83044,-0.72403 30.6875,-8.375 4.504,-6.88395 -0.53561,-16.31246 -8.25,-17.65625 -18.35785,-7.34878 -38.60371,-6.58751 -57.96165,-9.51216 -20.00446,-1.70092 -40.08565,-2.55577 -60.16335,-2.39409 z m -92.40625,319.75 c 61.66751,0.0857 123.34317,-0.26763 185,0.5625 20.22056,1.0456 41.07523,2.83047 59.78125,10.84375 14.30715,8.31379 19.15631,25.49258 20.125,41 4.18236,36.12861 1.03236,72.55363 2.1875,108.8125 0,7.02083 0,14.04167 0,21.0625 -74.99174,-1.31765 -150.27721,3.43879 -225.03125,-4.1875 -16.21932,-2.4791 -33.972447,-11.61421 -38,-28.78125 -7.647339,-24.04588 -4.719175,-49.71499 -6.106328,-74.56246 -0.198401,-24.91654 0.318843,-49.83433 0.01258,-74.75004 0.677083,0 1.354167,0 2.031248,0 z m 504.59375,61.875 c 36.44402,0.0737 72.97781,0.22098 109.46875,0.0625 -1.26667,48.58646 3.56102,97.91666 -5.65625,145.84375 -7.71459,24.21713 -33.08958,38.3557 -57.41805,40.27856 -67.71244,7.50599 -136.1389,11.99284 -204.1757,8.53394 -5.06592,-0.34605 -3.04377,-6.16186 -3.40625,-9.34375 -1.35441,-48.22481 -7.61439,-96.89697 -0.43463,-144.91263 3.55525,-15.48029 15.63265,-29.24782 31.68463,-32.18112 32.66252,-9.71249 67.22833,-6.50901 100.87495,-8.16672 9.68707,-0.10877 19.37496,-0.12417 29.06255,-0.11453 z"
         style="fill:#000000;filter:url(#filter4017)" />
      <path
         sodipodi:nodetypes="cccccccccccccccccccccccccccccccccccccccccccccccccccccccccccccccccccccccccccccccccccccccccccccccccccccccccccccccccccccccccccccccc"
         inkscape:connector-curvature="0"
         id="path3068"
         d="m 434.67272,43.212479 c -37.92779,2.232774 -76.21247,1.698595 -113.71117,8.427526 -4.68882,0.875914 -8.89917,3.30274 -13.44889,4.537899 -9.43104,1.446165 -18.25652,-3.510686 -27.35936,-5.092802 -22.46347,-4.736351 -45.4934,-5.830035 -68.386,-6.674382 -15.14682,-0.46144 -30.30116,-0.64099 -45.44592,-1.176266 0.3154,39.773209 2.04039,79.556836 0.56699,119.325696 -0.39998,20.97634 -0.34233,42.06201 2.36671,62.89347 2.38155,9.13323 10.75175,14.92874 18.90974,18.60209 15.34627,6.66857 32.18112,9.2105 48.85069,9.18995 14.11195,1.55224 58.5729,-2.56564 51.5984,8.3793 -1.68435,4.63433 -39.01129,2.67339 -49.0372,2.68115 -24.64403,-0.50703 -49.28069,-1.32475 -73.92558,-1.79115 1.54189,28.19241 1.37165,56.50644 4.37681,84.59997 2.04416,17.8035 19.3029,33.8991 37.53388,35.34265 14.38791,2.00485 28.99689,0.94761 43.48532,1.33905 12.64312,0.009 25.28625,-0.0425 37.92936,-0.0109 0.21267,9.34073 -1.15754,18.96825 1.43938,28.06247 1.836,3.75054 5.07376,3.79139 10.41086,3.94522 6.4797,0.26571 16.50229,2.82363 15.86061,-7.03276 0.97097,-1.6254 3.41336,-0.73102 4.91148,-1.40642 25.66748,-3.51995 52.02829,0.3669 77.4849,-5.06529 9.5528,-1.9904 19.25102,-5.45409 26.10665,-12.65779 4.47792,-4.49193 7.09898,-10.54118 7.63678,-16.86835 2.62739,-17.75087 2.53781,-35.79765 2.5832,-53.71631 -0.10639,-10.68108 0.0636,-21.41062 -0.0235,-32.06196 -0.97838,-2.87536 -4.5628,-3.60443 -7.17473,-2.77887 -36.80869,1.25592 -73.61739,2.51184 -110.42608,3.76776 0.30024,-10.15034 -1.37177,-20.78851 2.08766,-30.5127 28.09007,-3.21179 59.43425,-4.17837 84.05551,-7.98802 7.73848,-1.57401 15.04886,-5.5843 19.9835,-11.80619 6.01438,-6.34252 9.64171,-14.82096 9.90827,-23.565 2.14228,-20.24353 1.13987,-40.63287 1.56316,-60.94651 0.0894,-36.65843 -0.0167,-73.316945 0.0247,-109.975406 -0.24539,0.01097 -0.49078,0.02198 -0.73617,0.03295 z M 234.3569,72.109995 c 16.43641,1.636653 33.21056,2.312687 49.09281,6.977157 3.69065,2.749329 3.32631,7.942665 4.05642,11.995223 1.72374,18.396075 1.00569,36.900285 1.39335,55.348055 0.0837,27.38033 -0.0986,54.85603 0.0221,82.17664 -20.82428,-0.39002 -41.73034,0.54312 -62.57312,-0.39221 -7.6108,-0.3366 -16.22831,-0.27714 -22.2735,-5.5521 -4.34383,-4.13668 -5.73887,-10.44019 -6.67345,-16.19252 -2.42738,-23.31728 -1.6263,-46.86624 -1.66231,-70.29123 -0.0372,-22.31939 -0.0849,-44.639018 -0.0588,-66.958767 12.89218,0.963249 25.78435,1.926499 38.67653,2.889752 z m 175.58262,68.595885 c 10e-4,24.30254 1.65441,48.89515 -1.99975,72.96898 -1.17395,5.15479 -5.06994,9.85534 -10.4373,10.77089 -9.41574,2.55685 -19.33786,2.11097 -29.01934,2.95268 -18.36633,0.85643 -36.75249,1.14876 -55.12504,1.83494 0.30612,-40.84226 -0.7652,-81.70932 0.83088,-122.53242 0.62906,-8.343525 1.40833,-17.229477 6.25616,-24.306518 5.27951,-6.351647 14.24453,-7.057075 21.92035,-7.790241 14.27668,-1.187672 28.62427,-0.895432 42.92587,-1.619386 7.83881,-0.236665 15.67763,-0.47333 23.51645,-0.709996 0.37724,22.810358 0.75448,45.620721 1.13172,68.431071 z m -41.40146,-33.72109 c -10.35353,0.4546 -21.45608,0.59374 -30.55665,6.02123 -2.49665,2.19401 -1.11829,7.09835 2.29642,7.33975 7.59214,2.15834 15.61026,1.15847 23.40367,1.61071 8.70934,0.006 17.79446,-0.11563 25.9089,-3.54454 2.86214,-1.84227 2.90929,-6.72742 -0.30766,-8.21876 -4.98311,-3.24376 -11.20485,-2.70692 -16.88791,-3.20577 -1.28501,-0.0331 -2.57191,-0.0447 -3.85677,-0.002 z m -139.0377,0.15383 c -6.18082,0.37789 -13.45708,-0.10057 -18.25049,4.49395 -2.16371,3.19684 0.64257,7.7531 4.34012,7.88913 10.79761,3.13107 22.25621,2.04768 33.38038,2.22966 6.04431,-0.16592 12.28064,-0.13692 18.05281,-2.0209 2.89311,-1.80758 2.09599,-6.74468 -1.23062,-7.51555 -6.50243,-2.97459 -13.81342,-3.55049 -20.82959,-4.51483 -5.13591,-0.48359 -10.30608,-0.6708 -15.46261,-0.56146 z m 151.8493,35.07257 c -11.25483,1.19542 -22.13546,2.08918 -33.77603,3.58198 -4.69791,0.24283 -10.01132,0.41183 -13.80049,3.48308 -2.3394,2.52718 -0.81912,7.50918 2.817,7.62846 13.44079,2.51859 27.24875,1.01701 40.68988,-0.68361 4.70724,-0.82959 9.79915,-1.76668 13.50803,-4.9451 2.47187,-3.21103 -0.14927,-8.26201 -4.07641,-8.64728 -1.7386,-0.47064 -3.56613,-0.47791 -5.36198,-0.41753 z m -155.74992,2.21951 c -4.84322,0.34356 -10.60913,-0.68566 -14.47073,2.92271 -2.04514,3.22855 1.43963,7.11324 4.76864,7.30679 14.70488,4.13787 30.19301,3.67491 45.34574,3.69958 3.90053,-0.25282 8.27581,-0.27573 11.50435,-2.71069 2.32214,-2.45766 0.9154,-6.93339 -2.40829,-7.61589 -5.20896,-2.1978 -11.06031,-1.8187 -16.56618,-2.66462 -9.3663,-0.76246 -18.78019,-1.0848 -28.17353,-0.93788 z m 155.56313,32.54541 c -12.67353,0.71184 -24.78621,2.48865 -37.76096,3.75682 -3.88186,0.25551 -8.77664,1.02695 -10.58469,4.96738 -1.11801,2.93471 1.44154,6.39638 4.57456,6.20234 11.72377,2.25581 23.74454,0.83782 35.53036,-0.14815 5.98313,-0.81968 12.3319,-1.76038 17.43739,-5.14222 2.56974,-2.59199 1.33193,-7.48382 -2.15357,-8.5374 -2.17876,-1.04904 -4.65333,-1.15733 -7.04309,-1.09877 z m -154.56325,1.48334 c -5.06975,0.29739 -11.07484,-0.76822 -15.22888,2.82382 -2.27906,2.81186 0.4263,6.96708 3.57098,7.62543 14.5532,4.84217 30.16173,4.22244 45.31282,4.35991 4.19924,-0.24478 8.91163,-0.19369 12.44925,-2.72275 2.31968,-2.35392 1.06754,-6.80061 -2.14259,-7.60345 -5.90908,-2.724 -12.60317,-2.42227 -18.90678,-3.45968 -8.32455,-0.77388 -16.69557,-1.15507 -25.0548,-1.02328 z m 11.10851,113.81006 c 14.28785,0.48086 29.14308,-1.22854 42.85637,3.46778 4.54627,2.20287 6.88853,7.17119 7.23919,12.06398 1.90117,12.1997 0.67022,24.63104 1.0959,36.93425 0,3.40251 0,6.80503 0,10.20754 -25.73886,-0.36426 -51.59034,1.0731 -77.24317,-1.28557 -5.52266,-0.74125 -11.86932,-3.23322 -13.62469,-9.06479 -2.79049,-7.72522 -1.85364,-16.18272 -2.34434,-24.28271 -0.10669,-9.34667 0.0832,-18.69377 0.004,-28.04048 14.00559,0 28.01118,0 42.01677,0 z m 139.63104,21.76652 c 11.18171,0.0306 22.36358,0.0693 33.54529,0.0218 -0.37872,16.64518 1.13509,33.51373 -1.84027,49.97024 -2.309,8.13821 -10.69065,13.02678 -18.65846,13.94426 -23.51195,2.6794 -47.3193,4.19159 -71.03937,3.25301 -0.7465,-0.20379 -2.79538,0.25358 -2.16457,-1.13174 -0.44596,-17.16812 -2.60386,-34.44117 -0.40654,-51.56502 1.01532,-5.14222 4.54239,-10.0855 9.82296,-11.2953 10.84684,-3.60023 22.53072,-2.55758 33.81998,-3.14247 5.64005,-0.0646 11.28065,-0.0688 16.92098,-0.055 z"
         style="fill:#034990" />
    </g>
  </g>
</svg>
